<?xml version="1.0" encoding="utf-8"?>
<!-- Generator: Adobe Illustrator 25.4.1, SVG Export Plug-In . SVG Version: 6.00 Build 0)  -->
<svg version="1.1" id="Capa_1" xmlns="http://www.w3.org/2000/svg" xmlns:xlink="http://www.w3.org/1999/xlink" x="0px" y="0px"
	 viewBox="0 0 150 203.8" style="enable-background:new 0 0 150 203.8;" xml:space="preserve">
<g>
	<g>
		<path d="M90,103.8v-30c-16.6,0-30-13.4-30-30V40H30h0H0v60c0,33.1,26.9,60,60,60v-30c-16.6,0-30-13.4-30-30V43.8
			C30,76.9,56.9,103.8,90,103.8z"/>
		<circle cx="30" cy="20" r="20"/>
	</g>
	<g>
		<path d="M60,100v30c16.6,0,30,13.4,30,30v3.8h30h0h30v-60c0-33.1-26.9-60-60-60v30c16.6,0,30,13.4,30,30V160
			C120,126.8,93.1,100,60,100z"/>
		<circle cx="120" cy="183.8" r="20"/>
	</g>
</g>
</svg>
