<?xml version="1.0" encoding="utf-8"?>
<!-- Generator: Adobe Illustrator 25.4.1, SVG Export Plug-In . SVG Version: 6.00 Build 0)  -->
<svg version="1.1" id="Capa_1" xmlns="http://www.w3.org/2000/svg" xmlns:xlink="http://www.w3.org/1999/xlink" x="0px" y="0px"
	 viewBox="0 0 267.1 174.9" style="enable-background:new 0 0 267.1 174.9;" xml:space="preserve">
<style type="text/css">
	.st0{fill:#1D1D1B;}
</style>
<g>
	<path class="st0" d="M177.8,140.9l-34.5,34L119,150.7V53.4L98.2,43.2l-9.7-10L58.8,53.1V138l11.8,11.8l-25.2,25l-25.2-25L32,138
		V52.8l-9.4-9.3h-9l-10,10.2L0,50.1l34.5-34.2l24.3,24.1v7.1l28.8-19.3l23.7-11.7l11.8,11.7l20.8,10.6H160l-14.3,14.3V138l9.4,9.4h9
		l10-10.3L177.8,140.9z"/>
	<path class="st0" d="M265.9,149.2c0.8,3.3,1.2,7.5,1.2,12.4c0,4.8-0.4,8.9-1.2,12.4h-49.7c-0.8-3.5-1.2-7.7-1.2-12.4
		c0-5,0.4-9.1,1.2-12.4h-12.4c-0.8-3.5-1.2-7.7-1.2-12.4c0-5,0.4-9.1,1.2-12.4c-0.8-3.5-1.2-7.7-1.2-12.4c0-5,0.4-9.1,1.2-12.4
		c-0.8-3.5-1.2-7.7-1.2-12.4c0-5,0.4-9.1,1.2-12.4h-24.9c-0.8-3.5-1.2-7.7-1.2-12.4c0-5,0.4-9.1,1.2-12.4h24.9
		c-0.8-3.5-1.2-7.7-1.2-12.4c0-5,0.4-9.1,1.2-12.4c-0.8-3.5-1.2-7.7-1.2-12.4c0-5,0.4-9.1,1.2-12.4h24.9c0.8,3.3,1.2,7.5,1.2,12.4
		c0,4.8-0.4,8.9-1.2,12.4c0.8,3.3,1.2,7.5,1.2,12.4c0,4.8-0.4,8.9-1.2,12.4h37.3c0.8,3.3,1.2,7.5,1.2,12.4c0,4.8-0.4,8.9-1.2,12.4
		h-37.3c0.8,3.3,1.2,7.5,1.2,12.4c0,4.8-0.4,8.9-1.2,12.4c0.8,3.3,1.2,7.5,1.2,12.4c0,4.8-0.4,8.9-1.2,12.4
		c0.8,3.3,1.2,7.5,1.2,12.4c0,4.8-0.4,8.9-1.2,12.4H265.9z"/>
</g>
</svg>
